<svg width="107" height="107" viewBox="0 0 107 107" fill="none" xmlns="http://www.w3.org/2000/svg">
<path d="M89.8311 92.8791H17.1659C12.8171 92.8734 8.64812 91.1431 5.57337 88.0678C2.49862 84.9925 0.769139 80.8232 0.764286 76.4744V30.5225C0.769141 26.174 2.49872 22.0051 5.57356 18.9302C8.6484 15.8554 12.8174 14.1258 17.1659 14.1209H89.8311C94.1798 14.1258 98.3491 15.8553 101.424 18.93C104.5 22.0048 106.23 26.1738 106.236 30.5225V76.4744C106.231 80.8237 104.501 84.9935 101.426 88.0689C98.3501 91.1443 94.1804 92.8742 89.8311 92.8791ZM17.1659 21.7638C14.8436 21.7662 12.6172 22.6898 10.9752 24.3318C9.33314 25.9739 8.40957 28.2003 8.40714 30.5225V76.4744C8.40876 78.7972 9.33197 81.0244 10.9741 82.6671C12.6163 84.3098 14.8431 85.2338 17.1659 85.2362H89.8311C92.1541 85.2338 94.3813 84.3099 96.0239 82.6673C97.6665 81.0246 98.5904 78.7975 98.5929 76.4744V30.5225C98.5896 28.2 97.6654 25.9736 96.0228 24.3317C94.3803 22.6897 92.1536 21.7662 89.8311 21.7638H17.1659Z" fill="black"/>
<path d="M53.4572 63.7873C50.2509 63.8188 47.1275 62.7687 44.5915 60.8066L3.7236 28.2388C2.93104 27.6068 2.42201 26.6858 2.30849 25.6785C2.19497 24.6712 2.48626 23.66 3.11829 22.8674C3.75031 22.0749 4.67129 21.5658 5.67862 21.4523C6.68595 21.3388 7.69712 21.6301 8.48969 22.2621L49.3453 54.8298C50.5523 55.6859 51.9962 56.1439 53.4759 56.1401C54.9556 56.1363 56.3972 55.6707 57.5996 54.8084L97.9509 22.2774C98.7394 21.6413 99.7483 21.3445 100.756 21.4523C101.763 21.5601 102.686 22.0636 103.322 22.8521C103.958 23.6406 104.255 24.6495 104.147 25.6569C104.04 26.6642 103.536 27.5875 102.748 28.2235L62.4085 60.7546C59.855 62.7513 56.6985 63.8207 53.4572 63.7873Z" fill="black"/>
</svg>
