<svg width="88" height="110" viewBox="0 0 88 110" fill="none" xmlns="http://www.w3.org/2000/svg">
<path d="M88 31.8468C87.5019 30.6281 86.6926 29.5627 85.6535 28.7579L57.4503 1.18184C57.1544 0.812097 56.7795 0.513887 56.3532 0.309306C55.9269 0.104724 55.4603 -0.000986348 54.9877 6.98448e-06H5.737C4.98328 -0.00117204 4.23674 0.146931 3.54016 0.435828C2.84359 0.724725 2.21068 1.14873 1.67771 1.68355C1.14475 2.21837 0.722212 2.85348 0.434317 3.55248C0.146422 4.25148 -0.00116798 5.00062 6.96026e-06 5.75697V104.243C-0.00116798 104.999 0.146422 105.749 0.434317 106.448C0.722212 107.147 1.14475 107.782 1.67771 108.316C2.21068 108.851 2.84359 109.275 3.54016 109.564C4.23674 109.853 4.98328 110.001 5.737 110H82.2719C83.7896 109.995 85.2433 109.386 86.3139 108.307C87.3845 107.228 87.9845 105.766 87.9822 104.243V56.7369V31.8468H88ZM58.173 11.2543L77.3379 29.2683H58.173V11.2543ZM44.3881 103.589H6.40617V6.4016H51.749V32.4646C51.749 33.3218 52.0883 34.1439 52.6924 34.7501C53.2964 35.3562 54.1156 35.6967 54.9699 35.6967H81.5938V56.7369V103.589H44.3881ZM18.2638 47.4524C18.4728 47.2128 18.7289 47.0191 19.016 46.8835C19.3031 46.7479 19.6151 46.6733 19.9323 46.6645H57.5752C57.8981 46.6656 58.217 46.7356 58.5108 46.8699C58.8046 47.0042 59.0666 47.1997 59.2793 47.4434C59.717 47.9364 59.9584 48.5739 59.9574 49.2341C59.9494 49.8943 59.7056 50.5296 59.2704 51.0247C59.0588 51.2681 58.7985 51.464 58.5064 51.5998C58.2143 51.7355 57.897 51.8081 57.5752 51.8126H19.959C19.6363 51.811 19.3175 51.7407 19.0238 51.6065C18.73 51.4722 18.468 51.277 18.2549 51.0337C17.8144 50.5279 17.5716 49.879 17.5716 49.2072C17.5716 48.5355 17.8144 47.8866 18.2549 47.3808L18.2638 47.4524ZM18.2638 83.9549C18.474 83.7098 18.734 83.5126 19.0264 83.3767C19.3188 83.2408 19.6368 83.1693 19.959 83.167H68.032C68.3556 83.1692 68.675 83.2406 68.9688 83.3765C69.2627 83.5123 69.5243 83.7095 69.7362 83.9549C70.1767 84.4607 70.4195 85.1096 70.4195 85.7814C70.4195 86.4531 70.1767 87.1021 69.7362 87.6078C69.5202 87.8493 69.2562 88.0426 68.9611 88.1752C68.666 88.3079 68.3464 88.3769 68.0231 88.3778H19.959C19.6372 88.3756 19.3194 88.306 19.0259 88.1734C18.7325 88.0408 18.4699 87.8482 18.2549 87.6078C17.8144 87.1021 17.5716 86.4531 17.5716 85.7814C17.5716 85.1096 17.8144 84.4607 18.2549 83.9549H18.2638ZM68.032 64.9292C68.3552 64.9336 68.6739 65.006 68.9674 65.1418C69.2609 65.2775 69.5228 65.4735 69.7362 65.7171C70.1767 66.2229 70.4195 66.8718 70.4195 67.5435C70.4195 68.2153 70.1767 68.8642 69.7362 69.37C69.5218 69.614 69.2582 69.8096 68.9629 69.9438C68.6676 70.0781 68.3473 70.148 68.0231 70.1489H19.959C19.6363 70.1473 19.3175 70.0771 19.0238 69.9428C18.73 69.8085 18.468 69.6133 18.2549 69.37C17.8144 68.8642 17.5716 68.2153 17.5716 67.5435C17.5716 66.8718 17.8144 66.2229 18.2549 65.7171C18.4665 65.4737 18.7268 65.2778 19.0189 65.142C19.311 65.0063 19.6283 64.9338 19.9501 64.9292H68.032ZM18.2638 29.2146C18.4755 28.9712 18.7358 28.7753 19.0278 28.6395C19.3199 28.5038 19.6372 28.4312 19.959 28.4267H37.3485C37.6713 28.4283 37.99 28.4986 38.2838 28.6328C38.5775 28.7671 38.8395 28.9623 39.0526 29.2056C39.4903 29.6986 39.7317 30.336 39.7307 30.9963C39.7284 31.6543 39.491 32.2896 39.0615 32.7869C38.8496 33.0298 38.5892 33.2255 38.2972 33.3612C38.0052 33.4969 37.6881 33.5697 37.3663 33.5748H19.959C19.6363 33.5732 19.3175 33.5029 19.0238 33.3686C18.73 33.2344 18.468 33.0392 18.2549 32.7959C17.8144 32.2901 17.5716 31.6411 17.5716 30.9694C17.5716 30.2977 17.8144 29.6487 18.2549 29.1429L18.2638 29.2146Z" fill="white"/>
</svg>
