<svg width="14" height="25" viewBox="0 0 14 25" fill="none" xmlns="http://www.w3.org/2000/svg">
<path d="M5.2358 17.9545V17.8182C5.25095 16.3712 5.40246 15.2197 5.69034 14.3636C5.97822 13.5076 6.38731 12.8144 6.91761 12.2841C7.44792 11.7538 8.08428 11.2652 8.8267 10.8182C9.27367 10.5455 9.67519 10.2235 10.0312 9.85227C10.3873 9.47348 10.6676 9.03788 10.8722 8.54545C11.0843 8.05303 11.1903 7.50758 11.1903 6.90909C11.1903 6.16667 11.0161 5.52273 10.6676 4.97727C10.3191 4.43182 9.85322 4.01136 9.26989 3.71591C8.68655 3.42045 8.03883 3.27273 7.3267 3.27273C6.70549 3.27273 6.10701 3.40151 5.53125 3.65909C4.95549 3.91667 4.47443 4.32197 4.08807 4.875C3.7017 5.42803 3.47822 6.15151 3.41761 7.04545H0.553977C0.614583 5.75758 0.947917 4.6553 1.55398 3.73864C2.16761 2.82197 2.97443 2.12121 3.97443 1.63636C4.98201 1.15151 6.09943 0.90909 7.3267 0.90909C8.66004 0.90909 9.81913 1.17424 10.804 1.70454C11.7964 2.23485 12.5616 2.96212 13.0994 3.88636C13.6449 4.8106 13.9176 5.86364 13.9176 7.04545C13.9176 7.87879 13.7888 8.63258 13.5312 9.30682C13.2812 9.98106 12.9176 10.5833 12.4403 11.1136C11.9706 11.6439 11.4025 12.1136 10.7358 12.5227C10.0691 12.9394 9.53504 13.3788 9.13352 13.8409C8.73201 14.2955 8.44034 14.8371 8.25852 15.4659C8.0767 16.0947 7.97822 16.8788 7.96307 17.8182V17.9545H5.2358ZM6.69034 24.6818C6.12973 24.6818 5.64867 24.4811 5.24716 24.0795C4.84564 23.678 4.64489 23.197 4.64489 22.6364C4.64489 22.0758 4.84564 21.5947 5.24716 21.1932C5.64867 20.7917 6.12973 20.5909 6.69034 20.5909C7.25095 20.5909 7.73201 20.7917 8.13352 21.1932C8.53504 21.5947 8.7358 22.0758 8.7358 22.6364C8.7358 23.0076 8.6411 23.3485 8.4517 23.6591C8.26989 23.9697 8.02367 24.2197 7.71307 24.4091C7.41004 24.5909 7.06913 24.6818 6.69034 24.6818Z" fill="black"/>
</svg>
